<?xml version="1.0" encoding="UTF-8"?>
<!--Generator: Apple Native CoreSVG 175-->
<!DOCTYPE svg
PUBLIC "-//W3C//DTD SVG 1.1//EN"
       "http://www.w3.org/Graphics/SVG/1.1/DTD/svg11.dtd">
<svg version="1.1" xmlns="http://www.w3.org/2000/svg" xmlns:xlink="http://www.w3.org/1999/xlink" width="3300" height="2200">
 <!--glyph: "uni100BD0.medium", point size: 100.0, font version: "17.3d3e1", template writer version: "65.1"-->
 <g id="Notes">
  <rect height="2200" id="artboard" style="fill:white;opacity:1" width="3300" x="0" y="0"/>
  <line style="fill:none;stroke:black;opacity:1;stroke-width:0.5;" x1="263" x2="3036" y1="292" y2="292"/>
  <text style="stroke:none;fill:black;font-family:sans-serif;font-size:13;font-weight:bold;" transform="matrix(1 0 0 1 263 322)">Weight/Scale Variations</text>
  <text style="stroke:none;fill:black;font-family:sans-serif;font-size:13;text-anchor:middle;" transform="matrix(1 0 0 1 559.711 322)">Ultralight</text>
  <text style="stroke:none;fill:black;font-family:sans-serif;font-size:13;text-anchor:middle;" transform="matrix(1 0 0 1 856.422 322)">Thin</text>
  <text style="stroke:none;fill:black;font-family:sans-serif;font-size:13;text-anchor:middle;" transform="matrix(1 0 0 1 1153.13 322)">Light</text>
  <text style="stroke:none;fill:black;font-family:sans-serif;font-size:13;text-anchor:middle;" transform="matrix(1 0 0 1 1449.84 322)">Regular</text>
  <text style="stroke:none;fill:black;font-family:sans-serif;font-size:13;text-anchor:middle;" transform="matrix(1 0 0 1 1746.56 322)">Medium</text>
  <text style="stroke:none;fill:black;font-family:sans-serif;font-size:13;text-anchor:middle;" transform="matrix(1 0 0 1 2043.27 322)">Semibold</text>
  <text style="stroke:none;fill:black;font-family:sans-serif;font-size:13;text-anchor:middle;" transform="matrix(1 0 0 1 2339.98 322)">Bold</text>
  <text style="stroke:none;fill:black;font-family:sans-serif;font-size:13;text-anchor:middle;" transform="matrix(1 0 0 1 2636.69 322)">Heavy</text>
  <text style="stroke:none;fill:black;font-family:sans-serif;font-size:13;text-anchor:middle;" transform="matrix(1 0 0 1 2933.4 322)">Black</text>
  <line style="fill:none;stroke:black;opacity:1;stroke-width:0.5;" x1="263" x2="3036" y1="1903" y2="1903"/>
  <g transform="matrix(1 0 0 1 263 1933)">
   <path d="M9.24805 0.830078Q10.8691 0.830078 12.2949 0.214844Q13.7207-0.400391 14.8096-1.49414Q15.8984-2.58789 16.5186-4.01367Q17.1387-5.43945 17.1387-7.05078Q17.1387-8.66211 16.5186-10.0879Q15.8984-11.5137 14.8047-12.6074Q13.7109-13.7012 12.2852-14.3164Q10.8594-14.9316 9.23828-14.9316Q7.62695-14.9316 6.20117-14.3164Q4.77539-13.7012 3.69141-12.6074Q2.60742-11.5137 1.9873-10.0879Q1.36719-8.66211 1.36719-7.05078Q1.36719-5.43945 1.9873-4.01367Q2.60742-2.58789 3.69629-1.49414Q4.78516-0.400391 6.21094 0.214844Q7.63672 0.830078 9.24805 0.830078ZM9.24805-0.654297Q7.91992-0.654297 6.7627-1.14746Q5.60547-1.64062 4.73145-2.51953Q3.85742-3.39844 3.36426-4.56055Q2.87109-5.72266 2.87109-7.05078Q2.87109-8.37891 3.35938-9.54102Q3.84766-10.7031 4.72168-11.582Q5.5957-12.4609 6.75293-12.9541Q7.91016-13.4473 9.23828-13.4473Q10.5762-13.4473 11.7334-12.9541Q12.8906-12.4609 13.7695-11.582Q14.6484-10.7031 15.1465-9.54102Q15.6445-8.37891 15.6445-7.05078Q15.6445-5.72266 15.1514-4.56055Q14.6582-3.39844 13.7842-2.51953Q12.9102-1.64062 11.748-1.14746Q10.5859-0.654297 9.24805-0.654297ZM5.6543-7.05078Q5.6543-6.72852 5.85938-6.52832Q6.06445-6.32812 6.40625-6.32812L8.51562-6.32812L8.51562-4.20898Q8.51562-3.88672 8.71094-3.67676Q8.90625-3.4668 9.23828-3.4668Q9.56055-3.4668 9.77051-3.67676Q9.98047-3.88672 9.98047-4.20898L9.98047-6.32812L12.0898-6.32812Q12.4219-6.32812 12.627-6.52832Q12.832-6.72852 12.832-7.05078Q12.832-7.38281 12.627-7.58789Q12.4219-7.79297 12.0898-7.79297L9.98047-7.79297L9.98047-9.90234Q9.98047-10.2344 9.77051-10.4443Q9.56055-10.6543 9.23828-10.6543Q8.90625-10.6543 8.71094-10.4443Q8.51562-10.2344 8.51562-9.90234L8.51562-7.79297L6.40625-7.79297Q6.06445-7.79297 5.85938-7.58789Q5.6543-7.38281 5.6543-7.05078Z"/>
  </g>
  <g transform="matrix(1 0 0 1 281.867 1933)">
   <path d="M11.709 2.91016Q13.75 2.91016 15.5518 2.12891Q17.3535 1.34766 18.7305-0.0292969Q20.1074-1.40625 20.8887-3.20801Q21.6699-5.00977 21.6699-7.05078Q21.6699-9.0918 20.8887-10.8936Q20.1074-12.6953 18.7305-14.0723Q17.3535-15.4492 15.5469-16.2305Q13.7402-17.0117 11.6992-17.0117Q9.6582-17.0117 7.85645-16.2305Q6.05469-15.4492 4.68262-14.0723Q3.31055-12.6953 2.5293-10.8936Q1.74805-9.0918 1.74805-7.05078Q1.74805-5.00977 2.5293-3.20801Q3.31055-1.40625 4.6875-0.0292969Q6.06445 1.34766 7.86621 2.12891Q9.66797 2.91016 11.709 2.91016ZM11.709 1.25Q9.98047 1.25 8.47656 0.605469Q6.97266-0.0390625 5.83496-1.17676Q4.69727-2.31445 4.05762-3.81836Q3.41797-5.32227 3.41797-7.05078Q3.41797-8.7793 4.05762-10.2832Q4.69727-11.7871 5.83008-12.9297Q6.96289-14.0723 8.4668-14.7119Q9.9707-15.3516 11.6992-15.3516Q13.4277-15.3516 14.9316-14.7119Q16.4355-14.0723 17.5781-12.9297Q18.7207-11.7871 19.3652-10.2832Q20.0098-8.7793 20.0098-7.05078Q20.0098-5.32227 19.3701-3.81836Q18.7305-2.31445 17.5928-1.17676Q16.4551-0.0390625 14.9463 0.605469Q13.4375 1.25 11.709 1.25ZM7.17773-7.05078Q7.17773-6.69922 7.41211-6.47461Q7.64648-6.25 8.01758-6.25L10.8887-6.25L10.8887-3.36914Q10.8887-2.99805 11.1133-2.76855Q11.3379-2.53906 11.6895-2.53906Q12.0605-2.53906 12.29-2.76855Q12.5195-2.99805 12.5195-3.36914L12.5195-6.25L15.4004-6.25Q15.7715-6.25 16.001-6.47461Q16.2305-6.69922 16.2305-7.05078Q16.2305-7.42188 16.001-7.65137Q15.7715-7.88086 15.4004-7.88086L12.5195-7.88086L12.5195-10.752Q12.5195-11.1328 12.29-11.3623Q12.0605-11.5918 11.6895-11.5918Q11.3379-11.5918 11.1133-11.3574Q10.8887-11.123 10.8887-10.752L10.8887-7.88086L8.01758-7.88086Q7.63672-7.88086 7.40723-7.65137Q7.17773-7.42188 7.17773-7.05078Z"/>
  </g>
  <g transform="matrix(1 0 0 1 305.646 1933)">
   <path d="M14.9707 5.66406Q17.0605 5.66406 18.96 5.01465Q20.8594 4.36523 22.4512 3.19336Q24.043 2.02148 25.2197 0.429688Q26.3965-1.16211 27.0459-3.06641Q27.6953-4.9707 27.6953-7.05078Q27.6953-9.14062 27.0459-11.04Q26.3965-12.9395 25.2197-14.5312Q24.043-16.123 22.4512-17.2998Q20.8594-18.4766 18.9551-19.126Q17.0508-19.7754 14.9609-19.7754Q12.8711-19.7754 10.9717-19.126Q9.07227-18.4766 7.48535-17.2998Q5.89844-16.123 4.72168-14.5312Q3.54492-12.9395 2.90039-11.04Q2.25586-9.14062 2.25586-7.05078Q2.25586-4.9707 2.90527-3.06641Q3.55469-1.16211 4.72656 0.429688Q5.89844 2.02148 7.49023 3.19336Q9.08203 4.36523 10.9814 5.01465Q12.8809 5.66406 14.9707 5.66406ZM14.9707 3.84766Q13.1641 3.84766 11.5283 3.2959Q9.89258 2.74414 8.53516 1.74805Q7.17773 0.751953 6.17676-0.610352Q5.17578-1.97266 4.62891-3.6084Q4.08203-5.24414 4.08203-7.05078Q4.08203-8.86719 4.62891-10.5029Q5.17578-12.1387 6.17188-13.501Q7.16797-14.8633 8.52539-15.8594Q9.88281-16.8555 11.5186-17.4023Q13.1543-17.9492 14.9609-17.9492Q16.7773-17.9492 18.4131-17.4023Q20.0488-16.8555 21.4111-15.8594Q22.7734-14.8633 23.7695-13.501Q24.7656-12.1387 25.3174-10.5029Q25.8691-8.86719 25.8691-7.05078Q25.8789-5.24414 25.332-3.6084Q24.7852-1.97266 23.7842-0.610352Q22.7832 0.751953 21.4209 1.74805Q20.0586 2.74414 18.4229 3.2959Q16.7871 3.84766 14.9707 3.84766ZM9.19922-7.05078Q9.19922-6.66992 9.45801-6.4209Q9.7168-6.17188 10.1172-6.17188L14.0625-6.17188L14.0625-2.2168Q14.0625-1.81641 14.3115-1.55762Q14.5605-1.29883 14.9512-1.29883Q15.3516-1.29883 15.6104-1.55273Q15.8691-1.80664 15.8691-2.2168L15.8691-6.17188L19.8242-6.17188Q20.2246-6.17188 20.4785-6.4209Q20.7324-6.66992 20.7324-7.05078Q20.7324-7.46094 20.4785-7.71484Q20.2246-7.96875 19.8242-7.96875L15.8691-7.96875L15.8691-11.9141Q15.8691-12.3242 15.6104-12.583Q15.3516-12.8418 14.9512-12.8418Q14.5605-12.8418 14.3115-12.583Q14.0625-12.3242 14.0625-11.9141L14.0625-7.96875L10.1172-7.96875Q9.70703-7.96875 9.45312-7.71484Q9.19922-7.46094 9.19922-7.05078Z"/>
  </g>
  <text style="stroke:none;fill:black;font-family:sans-serif;font-size:13;font-weight:bold;" transform="matrix(1 0 0 1 263 1953)">Design Variations</text>
  <text style="stroke:none;fill:black;font-family:sans-serif;font-size:13;" transform="matrix(1 0 0 1 263 1971)">Symbols are supported in up to nine weights and three scales.</text>
  <text style="stroke:none;fill:black;font-family:sans-serif;font-size:13;" transform="matrix(1 0 0 1 263 1989)">For optimal layout with text and other symbols, vertically align</text>
  <text style="stroke:none;fill:black;font-family:sans-serif;font-size:13;" transform="matrix(1 0 0 1 263 2007)">symbols with the adjacent text.</text>
  <line style="fill:none;stroke:#00AEEF;stroke-width:0.5;opacity:1.0;" x1="776" x2="776" y1="1919" y2="1933"/>
  <g transform="matrix(1 0 0 1 776 1933)">
   <path d="M3.31055 0.15625Q3.70117 0.15625 3.91602-0.00976562Q4.13086-0.175781 4.26758-0.585938L5.52734-4.0332L11.2891-4.0332L12.5488-0.585938Q12.6855-0.175781 12.9004-0.00976562Q13.1152 0.15625 13.4961 0.15625Q13.8867 0.15625 14.1162-0.0585938Q14.3457-0.273438 14.3457-0.644531Q14.3457-0.869141 14.2383-1.17188L9.6582-13.3691Q9.48242-13.8184 9.17969-14.043Q8.87695-14.2676 8.4082-14.2676Q7.5-14.2676 7.17773-13.3789L2.59766-1.16211Q2.49023-0.859375 2.49023-0.634766Q2.49023-0.263672 2.70996-0.0537109Q2.92969 0.15625 3.31055 0.15625ZM6.00586-5.51758L8.37891-12.0898L8.42773-12.0898L10.8008-5.51758Z"/>
  </g>
  <line style="fill:none;stroke:#00AEEF;stroke-width:0.5;opacity:1.0;" x1="793.197" x2="793.197" y1="1919" y2="1933"/>
  <text style="stroke:none;fill:black;font-family:sans-serif;font-size:13;font-weight:bold;" transform="matrix(1 0 0 1 776 1953)">Margins</text>
  <text style="stroke:none;fill:black;font-family:sans-serif;font-size:13;" transform="matrix(1 0 0 1 776 1971)">Leading and trailing margins on the left and right side of each symbol</text>
  <text style="stroke:none;fill:black;font-family:sans-serif;font-size:13;" transform="matrix(1 0 0 1 776 1989)">can be adjusted by modifying the x-location of the margin guidelines.</text>
  <text style="stroke:none;fill:black;font-family:sans-serif;font-size:13;" transform="matrix(1 0 0 1 776 2007)">Modifications are automatically applied proportionally to all</text>
  <text style="stroke:none;fill:black;font-family:sans-serif;font-size:13;" transform="matrix(1 0 0 1 776 2025)">scales and weights.</text>
  <g transform="matrix(1 0 0 1 1289 1933)">
   <path d="M2.8418 1.86523L4.54102 3.57422Q5.18555 4.22852 5.90332 4.17969Q6.62109 4.13086 7.31445 3.35938L18.0078-8.42773L17.041-9.4043L6.42578 2.27539Q6.16211 2.57812 5.89355 2.61719Q5.625 2.65625 5.27344 2.30469L4.10156 1.14258Q3.75 0.791016 3.79395 0.522461Q3.83789 0.253906 4.14062-0.0195312L15.6152-10.8203L14.6387-11.7871L3.04688-0.898438Q2.30469-0.214844 2.25098 0.498047Q2.19727 1.21094 2.8418 1.86523ZM9.25781-16.3281Q8.94531-16.0254 8.90625-15.6348Q8.86719-15.2441 9.04297-14.9512Q9.21875-14.6777 9.55566-14.541Q9.89258-14.4043 10.3809-14.5215Q11.4746-14.7754 12.5977-14.7314Q13.7207-14.6875 14.7949-13.9844L14.209-12.5293Q13.9551-11.9043 14.0674-11.4404Q14.1797-10.9766 14.5801-10.5664L16.875-8.25195Q17.2363-7.88086 17.5781-7.82227Q17.9199-7.76367 18.3398-7.8418L19.4043-8.03711L20.0684-7.36328L20.0293-6.80664Q20-6.43555 20.1221-6.12305Q20.2441-5.81055 20.6055-5.44922L21.3672-4.70703Q21.7285-4.3457 22.1533-4.33105Q22.5781-4.31641 22.9297-4.66797L25.8398-7.58789Q26.1914-7.93945 26.1816-8.35449Q26.1719-8.76953 25.8105-9.13086L25.0391-9.89258Q24.6875-10.2539 24.3799-10.3857Q24.0723-10.5176 23.7109-10.4883L23.1348-10.4395L22.4902-11.0742L22.7344-12.1973Q22.832-12.6172 22.6953-12.9834Q22.5586-13.3496 22.1191-13.7891L19.9219-15.9766Q18.6719-17.2168 17.2607-17.8369Q15.8496-18.457 14.4189-18.4814Q12.9883-18.5059 11.665-17.959Q10.3418-17.4121 9.25781-16.3281ZM10.752-15.957Q11.6602-16.6211 12.7002-16.9043Q13.7402-17.1875 14.8047-17.085Q15.8691-16.9824 16.8701-16.5137Q17.8711-16.0449 18.7012-15.2051L21.1328-12.793Q21.3086-12.6172 21.3525-12.4512Q21.3965-12.2852 21.3379-12.0312L21.0156-10.5469L22.5195-9.0625L23.5059-9.12109Q23.6914-9.13086 23.7891-9.09668Q23.8867-9.0625 24.0332-8.91602L24.6094-8.33984L22.168-5.89844L21.5918-6.47461Q21.4453-6.62109 21.4062-6.71875Q21.3672-6.81641 21.377-7.01172L21.4453-7.98828L19.9512-9.47266L18.4277-9.21875Q18.1836-9.16992 18.042-9.2041Q17.9004-9.23828 17.7148-9.41406L15.7129-11.416Q15.5176-11.5918 15.4932-11.7529Q15.4688-11.9141 15.5859-12.1875L16.4648-14.2773Q15.293-15.3711 13.8281-15.791Q12.3633-16.2109 10.8398-15.7617Q10.7227-15.7324 10.6885-15.8057Q10.6543-15.8789 10.752-15.957Z"/>
  </g>
  <text style="stroke:none;fill:black;font-family:sans-serif;font-size:13;font-weight:bold;" transform="matrix(1 0 0 1 1289 1953)">Exporting</text>
  <text style="stroke:none;fill:black;font-family:sans-serif;font-size:13;" transform="matrix(1 0 0 1 1289 1971)">Symbols should be outlined when exporting to ensure the</text>
  <text style="stroke:none;fill:black;font-family:sans-serif;font-size:13;" transform="matrix(1 0 0 1 1289 1989)">design is preserved when submitting to Xcode.</text>
  <text id="template-version" style="stroke:none;fill:black;font-family:sans-serif;font-size:13;text-anchor:end;" transform="matrix(1 0 0 1 3036 1933)">Template v.3.0</text>
  <text style="stroke:none;fill:black;font-family:sans-serif;font-size:13;text-anchor:end;" transform="matrix(1 0 0 1 3036 1951)">Requires Xcode 13 or greater</text>
  <text id="descriptive-name" style="stroke:none;fill:black;font-family:sans-serif;font-size:13;text-anchor:end;" transform="matrix(1 0 0 1 3036 1969)">Generated from brain</text>
  <text style="stroke:none;fill:black;font-family:sans-serif;font-size:13;text-anchor:end;" transform="matrix(1 0 0 1 3036 1987)">Typeset at 100 points</text>
  <text style="stroke:none;fill:black;font-family:sans-serif;font-size:13;" transform="matrix(1 0 0 1 263 726)">Small</text>
  <text style="stroke:none;fill:black;font-family:sans-serif;font-size:13;" transform="matrix(1 0 0 1 263 1156)">Medium</text>
  <text style="stroke:none;fill:black;font-family:sans-serif;font-size:13;" transform="matrix(1 0 0 1 263 1586)">Large</text>
 </g>
 <g id="Guides">
  <g id="H-reference" style="fill:#27AAE1;stroke:none;" transform="matrix(1 0 0 1 339 696)">
   <path d="M0.993347 0L3.6377 0L29.3282-67.1326L30.0301-67.1326L30.0301-70.459L28.1227-70.459ZM11.6882-24.4797L46.9818-24.4797L46.2311-26.7288L12.4382-26.7288ZM55.1193 0L57.7637 0L30.6381-70.459L29.4327-70.459L29.4327-67.1326Z"/>
  </g>
  <line id="Baseline-S" style="fill:none;stroke:#27AAE1;opacity:1;stroke-width:0.5;" x1="263" x2="3036" y1="696" y2="696"/>
  <line id="Capline-S" style="fill:none;stroke:#27AAE1;opacity:1;stroke-width:0.5;" x1="263" x2="3036" y1="625.541" y2="625.541"/>
  <g id="H-reference" style="fill:#27AAE1;stroke:none;" transform="matrix(1 0 0 1 339 1126)">
   <path d="M0.993347 0L3.6377 0L29.3282-67.1326L30.0301-67.1326L30.0301-70.459L28.1227-70.459ZM11.6882-24.4797L46.9818-24.4797L46.2311-26.7288L12.4382-26.7288ZM55.1193 0L57.7637 0L30.6381-70.459L29.4327-70.459L29.4327-67.1326Z"/>
  </g>
  <line id="Baseline-M" style="fill:none;stroke:#27AAE1;opacity:1;stroke-width:0.5;" x1="263" x2="3036" y1="1126" y2="1126"/>
  <line id="Capline-M" style="fill:none;stroke:#27AAE1;opacity:1;stroke-width:0.5;" x1="263" x2="3036" y1="1055.54" y2="1055.54"/>
  <g id="H-reference" style="fill:#27AAE1;stroke:none;" transform="matrix(1 0 0 1 339 1556)">
   <path d="M0.993347 0L3.6377 0L29.3282-67.1326L30.0301-67.1326L30.0301-70.459L28.1227-70.459ZM11.6882-24.4797L46.9818-24.4797L46.2311-26.7288L12.4382-26.7288ZM55.1193 0L57.7637 0L30.6381-70.459L29.4327-70.459L29.4327-67.1326Z"/>
  </g>
  <line id="Baseline-L" style="fill:none;stroke:#27AAE1;opacity:1;stroke-width:0.5;" x1="263" x2="3036" y1="1556" y2="1556"/>
  <line id="Capline-L" style="fill:none;stroke:#27AAE1;opacity:1;stroke-width:0.5;" x1="263" x2="3036" y1="1485.54" y2="1485.54"/>
  <line id="left-margin-Ultralight-S" style="fill:none;stroke:#00AEEF;stroke-width:0.5;opacity:1.0;" x1="509.732" x2="509.732" y1="600.785" y2="720.121"/>
  <line id="right-margin-Ultralight-S" style="fill:none;stroke:#00AEEF;stroke-width:0.5;opacity:1.0;" x1="609.691" x2="609.691" y1="600.785" y2="720.121"/>
  <line id="left-margin-Regular-S" style="fill:none;stroke:#00AEEF;stroke-width:0.5;opacity:1.0;" x1="1391.06" x2="1391.06" y1="600.785" y2="720.121"/>
  <line id="right-margin-Regular-S" style="fill:none;stroke:#00AEEF;stroke-width:0.5;opacity:1.0;" x1="1508.63" x2="1508.63" y1="600.785" y2="720.121"/>
  <line id="left-margin-Black-S" style="fill:none;stroke:#00AEEF;stroke-width:0.5;opacity:1.0;" x1="2870.92" x2="2870.92" y1="600.785" y2="720.121"/>
  <line id="right-margin-Black-S" style="fill:none;stroke:#00AEEF;stroke-width:0.5;opacity:1.0;" x1="2995.88" x2="2995.88" y1="600.785" y2="720.121"/>
 </g>
 <g id="Symbols">
  <g id="Black-S" transform="matrix(1 0 0 1 2870.92 696)">
   <path d="M6.83594-37.793Q6.83594-29.7852 10.3027-23.7305Q13.7695-17.6758 19.9707-14.3066Q26.1719-10.9375 34.375-10.9375Q42.4805-10.9375 48.6084-14.0137Q54.7363-17.0898 58.1543-22.583Q61.5723-28.0762 61.5723-35.3516Q61.5723-39.8926 60.0586-43.5791Q58.5449-47.2656 55.6152-49.707Q54.0039-51.0742 52.7344-51.6113Q51.4648-52.1484 49.9023-52.1484Q47.4609-52.1484 45.8252-50.6348Q44.1895-49.1211 44.1895-46.8262Q44.1895-45.4102 44.5068-44.5801Q44.8242-43.75 45.7275-42.8711Q46.6309-41.9922 48.3887-40.332Q49.2188-39.5996 49.6094-38.4033Q50-37.207 50-35.498Q50-29.6875 45.8008-26.1475Q41.6016-22.6074 34.5215-22.6074Q27.2949-22.6074 22.9248-26.7578Q18.5547-30.9082 18.5547-37.8418Q18.5547-42.3828 20.9717-46.0938Q23.3887-49.8047 27.5391-51.6113L21.4355-61.6699Q14.6484-58.252 10.7422-51.8066Q6.83594-45.3613 6.83594-37.793ZM17.0898-59.9121Q17.0898-54.6387 19.4092-50.6592Q21.7285-46.6797 25.8545-44.4336Q29.9805-42.1875 35.4004-42.1875Q37.8418-42.1875 39.5508-43.9209Q41.2598-45.6543 41.2598-48.0469Q41.2598-50.4883 39.5508-52.1973Q37.8418-53.9062 35.4004-53.9062Q32.3242-53.9062 30.5664-55.5176Q28.8086-57.1289 28.8086-59.9121Q28.8086-61.8652 29.834-63.3545Q30.8594-64.8438 32.6416-65.6982Q34.4238-66.5527 36.7676-66.5527Q39.2578-66.5527 41.6016-65.5518Q43.9453-64.5508 45.9961-62.5977L52.9297-72.168Q49.5117-75.0977 45.3125-76.6846Q41.1133-78.2715 36.8164-78.2715Q31.2012-78.2715 26.7334-75.8789Q22.2656-73.4863 19.6777-69.3359Q17.0898-65.1855 17.0898-59.9121ZM39.0625-61.9629Q39.0625-59.2285 40.6982-57.4707Q42.334-55.7129 44.873-55.7129Q47.3633-55.7129 48.9746-57.2998Q50.5859-58.8867 50.6836-61.4258Q50.8789-66.0156 53.8086-68.8721Q56.7383-71.7285 61.2305-71.7285Q63.8672-71.7285 66.1133-70.459Q68.3594-69.1895 69.3359-67.1387Q69.9707-65.9668 71.0205-65.6494Q72.0703-65.332 73.3398-65.625Q74.707-65.9668 76.5625-65.9668Q79.7363-65.9668 82.2998-64.4531Q84.8633-62.9395 86.377-60.4004Q87.8906-57.8613 87.8906-54.7363Q87.8906-50.6348 86.1084-47.6807Q84.3262-44.7266 81.4941-42.4072Q78.6621-40.0879 75.5127-37.915Q72.3633-35.7422 69.5312-33.2031Q66.6992-30.6641 64.917-27.2705Q63.1348-23.877 63.1348-19.0918Q63.1348-14.1113 65.4053-10.3516Q67.6758-6.5918 71.7529-4.49219Q75.8301-2.39258 81.25-2.39258Q81.3477-2.39258 81.4453-2.39258Q81.543-2.39258 81.5918-2.39258Q82.5684 1.41602 84.6191 4.3457Q86.6699 7.27539 89.5264 8.91113Q92.3828 10.5469 95.7031 10.5469Q99.5117 10.5469 102.71 8.78906Q105.908 7.03125 108.252 3.71094Q110.596 0.390625 111.89-4.27246Q113.184-8.93555 113.184-14.7461Q113.184-20.2148 112.866-23.6816Q112.549-27.1484 112.158-30.2734L100.586-27.1484Q100.928-24.2188 101.221-21.3867Q101.514-18.5547 101.514-14.8926Q101.514-9.76562 100.635-6.7627Q99.7559-3.75977 98.4131-2.46582Q97.0703-1.17188 95.7031-1.17188Q94.4824-1.17188 93.4814-2.36816Q92.4805-3.56445 91.8945-5.61523Q91.3086-7.66602 91.3086-10.3027Q91.3086-11.5723 90.4541-12.3535Q89.5996-13.1348 88.3301-13.1348Q88.1348-13.1348 87.6953-13.1348Q87.2559-13.1348 85.8398-13.1348Q81.1035-13.1348 78.4668-14.9902Q75.8301-16.8457 75.8301-19.873Q75.8301-22.5098 77.5391-24.4385Q79.248-26.3672 81.958-28.1738Q84.668-29.9805 87.7197-32.1289Q90.7715-34.2773 93.4814-37.207Q96.1914-40.1367 97.9004-44.4092Q99.6094-48.6816 99.6094-54.7363Q99.6094-61.1816 96.6797-66.3818Q93.75-71.582 88.7451-74.6338Q83.7402-77.6855 77.5879-77.6855Q77.2461-77.6855 76.8555-77.6611Q76.4648-77.6367 75.9766-77.5879Q73.1445-80.3223 69.2871-81.8604Q65.4297-83.3984 61.2793-83.3984Q55.0781-83.3984 50.0244-80.6641Q44.9707-77.9297 42.0166-73.1201Q39.0625-68.3105 39.0625-61.9629ZM86.7676-21.4844Q86.7676-19.0918 88.4033-17.4561Q90.0391-15.8203 92.4805-15.625Q100.098-15.0391 105.884-17.7002Q111.67-20.3613 114.893-25.6592Q118.115-30.957 118.115-38.2324Q118.115-44.3848 115.21-49.3652Q112.305-54.3457 107.178-57.4707Q102.051-60.5957 95.3125-61.1328L93.2617-49.0234Q99.1699-49.9512 102.783-46.9238Q106.396-43.8965 106.396-38.2324Q106.396-32.6172 102.734-29.6387Q99.0723-26.6602 92.8223-27.2949Q90.3809-27.5391 88.5742-25.7812Q86.7676-24.0234 86.7676-21.4844ZM68.7012-19.9219Q66.8945-18.9453 64.7217-18.3838Q62.5488-17.8223 60.3516-17.8223Q58.1055-17.8223 56.0059-18.4814Q53.9062-19.1406 52.2461-20.5566L39.8926-12.2559Q43.6035-9.375 48.5596-7.76367Q53.5156-6.15234 58.9844-6.15234Q62.5-6.15234 66.0156-6.78711Q69.5312-7.42188 72.8027-8.64258ZM51.0742-44.4824L55.0781-33.1055Q64.1113-34.375 68.9941-39.5508Q73.877-44.7266 73.4863-53.3691Q73.3887-55.8105 71.582-57.5195Q69.7754-59.2285 67.334-59.2285Q64.9414-59.2285 63.2568-57.5195Q61.5723-55.8105 61.7676-53.3691Q62.1582-48.6328 59.5459-46.7041Q56.9336-44.7754 51.0742-44.4824Z"/>
  </g>
  <g id="Regular-S" transform="matrix(1 0 0 1 1391.06 696)">
   <path d="M6.83594-38.0859Q6.83594-30.7617 9.96094-25.293Q13.0859-19.8242 18.7012-16.7969Q24.3164-13.7695 31.8359-13.7695Q39.209-13.7695 44.751-16.5039Q50.293-19.2383 53.3936-24.1699Q56.4941-29.1016 56.4941-35.6445Q56.4941-39.7949 55.1514-42.9688Q53.8086-46.1426 51.3672-48.1934Q50.1465-49.2188 49.292-49.6094Q48.4375-50 47.2656-50Q45.752-50 44.8242-49.1699Q43.8965-48.3398 43.8965-46.9727Q43.8965-45.8984 44.2871-45.2148Q44.6777-44.5312 45.4346-43.8965Q46.1914-43.2617 47.2168-42.334Q48.3398-41.2598 48.9502-39.5996Q49.5605-37.9395 49.5605-35.791Q49.5605-29.0527 44.7266-24.9023Q39.8926-20.752 31.9824-20.752Q23.8281-20.752 18.8477-25.5371Q13.8672-30.3223 13.8672-38.1348Q13.8672-42.627 16.0156-46.5088Q18.1641-50.3906 21.9238-52.7832L18.3105-58.7891Q12.9395-55.4688 9.8877-49.9512Q6.83594-44.4336 6.83594-38.0859ZM17.7246-58.5449Q17.7246-54.0039 19.7021-50.5371Q21.6797-47.0703 25.2686-45.166Q28.8574-43.2617 33.6426-43.2617Q35.1074-43.2617 36.1328-44.2871Q37.1582-45.3125 37.1582-46.7773Q37.1582-48.1934 36.1328-49.2432Q35.1074-50.293 33.6426-50.293Q29.6387-50.293 27.1973-52.5879Q24.7559-54.8828 24.7559-58.5449Q24.7559-61.2793 26.1475-63.2812Q27.5391-65.2832 29.8584-66.3818Q32.1777-67.4805 35.0098-67.4805Q37.1582-67.4805 39.4043-66.7725Q41.6504-66.0645 43.75-64.5508L47.9004-70.3125Q44.8242-72.4609 41.5527-73.4863Q38.2812-74.5117 35.0586-74.5117Q30.4199-74.5117 26.4648-72.5342Q22.5098-70.5566 20.1172-66.9678Q17.7246-63.3789 17.7246-58.5449ZM38.6719-59.5703Q38.623-57.8125 39.6484-56.7871Q40.6738-55.7617 42.1875-55.7617Q43.6035-55.7617 44.5801-56.6406Q45.5566-57.5195 45.6543-59.2285Q45.8496-64.5996 49.3896-68.1396Q52.9297-71.6797 58.4473-71.6797Q61.8164-71.6797 64.5508-70.0195Q67.2852-68.3594 68.457-65.8691Q68.7012-65.4785 69.043-65.4053Q69.3848-65.332 70.0195-65.4785Q71.8262-65.918 73.8281-65.918Q77.1484-65.8691 80.249-64.2578Q83.3496-62.6465 85.3271-59.6436Q87.3047-56.6406 87.3047-52.4902Q87.3047-47.8516 85.4492-44.7754Q83.5938-41.6992 80.6641-39.5264Q77.7344-37.3535 74.4629-35.5225Q71.1914-33.6914 68.2861-31.5674Q65.3809-29.4434 63.5254-26.4404Q61.6699-23.4375 61.6699-18.9453Q61.6699-14.5508 63.7939-11.3525Q65.918-8.1543 69.5068-6.4209Q73.0957-4.6875 77.4902-4.6875Q78.2227-4.6875 78.9795-4.71191Q79.7363-4.73633 80.4688-4.78516Q80.957-1.61133 82.4951 1.36719Q84.0332 4.3457 86.5723 6.27441Q89.1113 8.20312 92.627 8.20312Q96.4355 8.20312 99.2676 6.17676Q102.1 4.15039 103.955 0.78125Q105.811-2.58789 106.738-6.66504Q107.666-10.7422 107.666-14.8438Q107.666-18.9941 107.471-21.8994Q107.275-24.8047 106.982-27.2461L99.9512-25.3906Q100.244-22.998 100.439-20.5078Q100.635-18.0176 100.635-14.9902Q100.635-10.6445 99.5361-6.95801Q98.4375-3.27148 96.6309-1.0498Q94.8242 1.17188 92.627 1.17188Q90.1855 1.17188 88.7207-0.683594Q87.2559-2.53906 86.6211-5.17578Q85.9863-7.8125 85.9863-10.1562Q85.9863-10.4492 85.8154-10.6201Q85.6445-10.791 85.2539-10.791Q84.375-10.791 83.4961-10.791Q82.6172-10.791 81.8359-10.791Q75.8789-10.791 72.29-12.6465Q68.7012-14.502 68.7012-19.0918Q68.7012-22.6074 70.5566-24.9023Q72.4121-27.1973 75.3418-28.9062Q78.2715-30.6152 81.543-32.3975Q84.8145-34.1797 87.7197-36.6455Q90.625-39.1113 92.4805-42.8955Q94.3359-46.6797 94.3359-52.4902Q94.3359-58.6426 91.5771-63.2324Q88.8184-67.8223 84.3506-70.3857Q79.8828-72.9492 74.8047-72.9492Q74.3164-72.9492 73.6572-72.876Q72.998-72.8027 72.2656-72.6562Q69.8242-75.4395 66.2109-77.0508Q62.5977-78.6621 58.4961-78.6621Q52.832-78.6621 48.4619-76.2207Q44.0918-73.7793 41.5039-69.458Q38.916-65.1367 38.6719-59.5703ZM84.2773-20.9473Q84.2773-19.4824 85.3027-18.5059Q86.3281-17.5293 87.793-17.4316Q94.6777-16.9434 99.8291-19.2871Q104.98-21.6309 107.861-26.3428Q110.742-31.0547 110.742-37.5977Q110.742-42.8223 108.423-47.0947Q106.104-51.3672 101.904-54.1748Q97.7051-56.9824 92.0898-57.8125L90.9668-50.7812Q96.6797-50.7324 100.195-47.1191Q103.711-43.5059 103.711-37.5977Q103.711-31.0059 99.3164-27.3926Q94.9219-23.7793 87.793-24.4629Q86.3281-24.5605 85.3027-23.4863Q84.2773-22.4121 84.2773-20.9473ZM64.6484-16.3086Q62.8906-15.6738 60.9619-15.3809Q59.0332-15.0879 57.0801-15.0879Q52.0508-15.0879 47.5586-16.8945Q43.0664-18.7012 41.2598-21.6309L35.4004-16.8945Q38.4766-13.0371 43.9453-10.5225Q49.4141-8.00781 56.2988-8.00781Q58.8379-8.00781 61.5723-8.39844Q64.3066-8.78906 67.0898-9.66797ZM52.3438-44.4824L54.6875-37.793Q62.2559-39.3066 65.7471-43.8721Q69.2383-48.4375 69.2383-55.3711Q69.2383-56.7871 68.1885-57.8369Q67.1387-58.8867 65.7227-58.8867Q64.2578-58.8867 63.2324-57.8369Q62.207-56.7871 62.207-55.3711Q62.207-50.7324 60.0098-47.9736Q57.8125-45.2148 52.3438-44.4824Z"/>
  </g>
  <g id="Ultralight-S" transform="matrix(1 0 0 1 509.732 696)">
   <path d="M6.83594-37.8586Q6.83594-32.3059 9.21173-28.1994Q11.5875-24.0929 15.863-21.8147Q20.1385-19.5366 25.8873-19.5366Q31.4438-19.5366 35.6464-21.5443Q39.8491-23.5519 42.2001-27.1667Q44.5511-30.7816 44.5511-35.5988Q44.5511-38.5231 43.4582-41.2205Q42.3653-43.9178 40.6052-45.5139Q40.3381-45.7222 40.0967-45.8176Q39.8552-45.9129 39.5462-45.9129Q39.077-45.9129 38.7623-45.6051Q38.4476-45.2972 38.4476-44.8387Q38.4476-44.6266 38.5201-44.4427Q38.5925-44.2589 38.6909-44.101Q38.7894-43.943 38.9977-43.7874Q40.6654-42.1677 41.5257-40.0082Q42.3859-37.8487 42.3859-35.6094Q42.3859-29.3709 37.8471-25.5383Q33.3084-21.7056 25.8972-21.7056Q18.2426-21.7056 13.6482-26.1501Q9.0538-30.5946 9.0538-37.9074Q9.0538-41.9456 11.0207-45.9637Q12.9875-49.9817 16.2025-52.42L15.6769-54.6112Q11.6676-52.063 9.25179-47.3854Q6.83594-42.7078 6.83594-37.8586ZM14.637-55.4573Q14.637-52.4597 16.024-49.7879Q17.411-47.1161 20.1824-45.4613Q22.9538-43.8065 27.1034-43.8065Q27.5238-43.8065 27.8683-44.1509Q28.2127-44.4954 28.2127-44.9158Q28.2127-45.3323 27.8683-45.6783Q27.5238-46.0243 27.1034-46.0243Q21.9193-46.0243 19.3642-48.9098Q16.8091-51.7952 16.8091-55.4573Q16.8091-58.0551 18.1099-60.4656Q19.4107-62.8761 21.9799-64.4291Q24.5491-65.9821 28.3348-65.9821Q30.2109-65.9821 32.1163-65.501Q34.0218-65.02 35.8032-64.0511L37.0926-65.9081Q35.0159-67.1028 32.8114-67.6514Q30.6068-68.1999 28.3836-68.1999Q23.8808-68.1999 20.8111-66.3357Q17.7414-64.4714 16.1892-61.541Q14.637-58.6105 14.637-55.4573ZM32.4051-56.6643Q32.402-56.0867 32.7236-55.7652Q33.0452-55.4436 33.5144-55.4436Q33.9767-55.4436 34.2949-55.7549Q34.613-56.0661 34.6199-56.5491Q34.8152-62.3291 38.673-66.0736Q42.5308-69.8181 48.4116-69.8181Q51.5991-69.8181 54.2656-68.2941Q56.9321-66.7702 58.0132-63.4621Q58.1657-63.0264 58.4167-62.9757Q58.6678-62.925 59.0302-63.0714Q61.6547-64.1922 64.2921-64.1014Q68.0664-64.0526 70.9171-62.3505Q73.7679-60.6483 75.3597-57.6229Q76.9516-54.5975 76.9516-50.5829Q76.9516-46.7621 75.2548-44.0262Q73.558-41.2903 70.8782-39.1857Q68.1984-37.0811 65.1993-35.1818Q62.2002-33.2825 59.5219-31.1813Q56.8436-29.0802 55.1472-26.3725Q53.4508-23.6649 53.4508-19.8532Q53.4508-16.5939 54.9389-14.2815Q56.427-11.969 59.1988-10.7124Q61.9705-9.45587 65.8195-9.45587Q66.3254-9.45587 66.9914-9.50279Q67.6575-9.54971 68.4349-9.55353Q68.6508-5.97076 69.8257-3.26462Q71.0007-0.558472 72.9492 0.938797Q74.8978 2.43607 77.4597 2.43607Q80.0423 2.43607 82.0343 0.818253Q84.0263-0.799561 85.3596-3.75977Q86.6928-6.71997 87.3936-10.82Q88.0943-14.92 88.0943-19.8845Q88.0943-21.6278 87.9898-23.3299Q87.8853-25.032 87.7739-26.7464L85.4652-25.8446Q85.6674-23.9967 85.7719-22.5964Q85.8765-21.196 85.8765-19.8036Q85.8765-13.8229 84.914-9.29642Q83.9516-4.7699 82.077-2.25296Q80.2025 0.263977 77.4597 0.263977Q75.3365 0.263977 73.7808-1.18294Q72.2252-2.62985 71.386-5.17578Q70.5467-7.72171 70.5467-11.0641Q70.5467-11.4029 70.3533-11.5963Q70.1599-11.7897 69.8601-11.7447Q69.2993-11.7447 67.8753-11.6764Q66.4513-11.6081 65.9882-11.6081Q61.348-11.6081 58.5083-13.8042Q55.6686-16.0004 55.6686-19.8639Q55.6686-23.1979 57.365-25.5836Q59.0614-27.9694 61.7416-29.9053Q64.4218-31.8413 67.4206-33.7597Q70.4193-35.6781 73.0976-37.9395Q75.7759-40.2008 77.4723-43.2587Q79.1687-46.3165 79.1687-50.5829Q79.1687-55.2826 77.2957-58.828Q75.4227-62.3734 72.0901-64.3463Q68.7576-66.3193 64.3608-66.3193Q63.327-66.3651 62.0777-66.1556Q60.8284-65.9462 59.5963-65.5266Q58.0177-68.7645 54.9721-70.3983Q51.9264-72.0322 48.4154-72.0322Q43.9316-72.0322 40.4015-70.0905Q36.8713-68.1488 34.7603-64.69Q32.6492-61.2312 32.4051-56.6643ZM74.8322-23.8083Q74.8322-23.3879 75.1762-23.0469Q75.5203-22.7058 75.9407-22.7448Q81.1005-22.7104 84.9575-24.6456Q88.8145-26.5808 90.9687-30.0892Q93.1229-33.5976 93.1229-38.279Q93.1229-42.7315 91.1671-46.1864Q89.2113-49.6414 85.693-51.6998Q82.1747-53.7582 77.4681-54.0436L77.4345-51.7349Q83.4656-51.5495 87.1853-47.8455Q90.905-44.1414 90.905-38.279Q90.905-32.2777 86.7832-28.5961Q82.6614-24.9146 75.9407-24.9168Q75.5203-24.9237 75.1762-24.5987Q74.8322-24.2737 74.8322-23.8083ZM54.9309-17.3073Q53.5362-16.8999 51.6983-16.6752Q49.8604-16.4505 48.2704-16.4505Q44.3764-16.4505 40.3839-17.8711Q36.3914-19.2917 34.1759-22.3122L32.3128-20.845Q35.0708-17.5323 39.2452-15.8806Q43.4196-14.2288 48.2162-14.2288Q49.7559-14.2288 51.741-14.4608Q53.7262-14.6927 55.4649-15.1169ZM42.8078-39.1693L43.6073-37.1574Q49.2683-38.308 52.124-41.7606Q54.9797-45.2133 54.8889-51.0117Q54.8889-51.474 54.5654-51.7975Q54.2419-52.121 53.7796-52.121Q53.3592-52.121 53.0151-51.7975Q52.6711-51.474 52.6711-51.0117Q52.6711-45.919 50.2922-43.0241Q47.9134-40.1291 42.8078-39.1693Z"/>
  </g>
 </g>
</svg>
